<svg xmlns="http://www.w3.org/2000/svg" id="mainsvg" width="934.2609375000001" height="597.4000000000001" viewBox="-10 -10 849.328125 544"><defs><marker id="arrow" viewBox="0 0 10 10" refX="10" refY="5" markerWidth="5" markerHeight="5" orient="auto-start-reverse" fill="black"><path stroke="black" d="M 0 0 L 10 5 L 0 10 z"/></marker><marker id="Many" viewBox="0 0 16 16" refX="15" refY="8" markerWidth="15" markerHeight="15" orient="auto-start-reverse"><path stroke="black" d="M0 8H15M15 15L2 8L15 1" fill="none"/></marker><marker id="ZeroOrOne" viewBox="0 0 16 10" refX="15" refY="5" markerWidth="21" markerHeight="21" orient="auto-start-reverse"><path d="M9 5H16" stroke="black" fill="none"/><circle cx="5" cy="5" r="4.5" stroke="black" fill="#fff"/><path d="M12 0L12 10" stroke="black" fill="none"/></marker><marker id="OneOnlyOne" viewBox="0 0 10 14" refX="10" refY="7" markerWidth="13" markerHeight="13" orient="auto-start-reverse"><path d="M0 7H4M4 7H7M4 7V0M4 7V14M7 7H10M7 7V0M7 7V14" stroke="black" fill="none"/></marker><marker id="OneOrMany" viewBox="0 0 16 16" refX="15" refY="8" markerWidth="15" markerHeight="15" orient="auto-start-reverse"><path stroke="black" d="M2 1V15M2 8L15 15M2 8L15 1M2 8H0M2 8H15" fill="none"/></marker><marker id="ZeroOrMany" viewBox="0 0 25 16" refX="23" refY="8" markerWidth="25" markerHeight="25" orient="auto-start-reverse"><path d="M13 8H27M27 15L14 8L27 1" stroke="black" fill="none"/><path d="M13.5 7.5C13.5 10.7795 10.6254 13.5 7 13.5C3.37461 13.5 0.5 10.7795 0.5 7.5C0.5 4.22054 3.37461 1.5 7 1.5C10.6254 1.5 13.5 4.22054 13.5 7.5Z" stroke="black" fill="#fff"/></marker><marker id="aggregation" viewBox="0 0 10 6" refX="9.3" refY="2.8" markerWidth="23" markerHeight="15" orient="auto-start-reverse"><path stroke="black" fill="#fff" stroke-width="0.7" d="M1.01614 2.82609L5 0.574341L8.98386 2.82609L5 5.07783L1.01614 2.82609Z"/></marker><marker id="composition" viewBox="0 0 10 6" refX="9.7" refY="2.8" markerWidth="18" markerHeight="15" orient="auto-start-reverse"><path stroke="black" fill="black" d="M1.01614 2.82609L5 0.574341L8.98386 2.82609L5 5.07783L1.01614 2.82609Z"/></marker><marker id="implementation" viewBox="0 0 8 10" refX="8" refY="5" markerWidth="20" markerHeight="20" orient="auto-start-reverse"><path stroke="black" fill="#fff" stroke-width="0.7" d="M0.750001 1.10289L7.5 5L0.750001 8.89712L0.750001 1.10289Z"/></marker><marker id="dependency" viewBox="0 0 12 12" refX="11" refY="6" markerWidth="12" markerHeight="11" orient="auto-start-reverse"><path stroke="black" fill="#fff" d="M1 5.93162H10.886M10.886 5.93162L1 0.5M10.886 5.93162L1 11"/></marker><marker id="inheritance" viewBox="0 0 8 10" refX="8" refY="5" markerWidth="20" markerHeight="20" orient="auto-start-reverse"><path stroke="black" fill="#fff" stroke-width="0.7" d="M0.750001 1.10289L7.5 5L0.750001 8.89712L0.750001 1.10289Z"/></marker><marker id="association" viewBox="0 0 12 12" refX="11" refY="6" markerWidth="12" markerHeight="11" orient="auto-start-reverse"><path stroke="black" d="M1 5.93162H10.886M10.886 5.93162L1 0.5M10.886 5.93162L1 11"/></marker><filter id="shadowOLD" x="-50%" y="-50%" width="250%" height="250%"><feDropShadow flood-color="black" flood-opacity="0.3" dx="1" dy="1" stdDeviation="2"> </feDropShadow></filter><filter id="shadow-path" filterUnits="userSpaceOnUse" x="-10" y="-10" width="849.328125px" height="534px"><feDropShadow flood-color="black" flood-opacity="0.1" dx="1" dy="1" stdDeviation="1"> </feDropShadow></filter><filter id="shadow" filterUnits="userSpaceOnUse" x="-10" y="-10" width="949.328125px" height="634px"><feDropShadow flood-color="black" flood-opacity="0.1" dx="1" dy="1" stdDeviation="1"> </feDropShadow></filter></defs><rect x="-10" y="-10" width="849.328125" height="534" fill="#fff"/><g><path transform="rotate(0,0, 0) scale(1)" d="M150,82L200,82L200,82L249,82L249,82L284,82" stroke="black" stroke-dasharray="none" stroke-width="1.3" fill="none" marker-end="url(#ZeroOrOne)"/><text x="160" y="72" font-size="smaller" fill="black"/><text x="264" y="72" font-size="smaller" fill="black"/></g><g><path transform="rotate(0,0, 0) scale(1)" d="M479,87L564,87L564,87L610,87L610,87L645,87" stroke="black" stroke-dasharray="none" stroke-width="1.3" fill="none"/><text x="489" y="77" font-size="smaller" fill="black">1</text><text x="625" y="77" font-size="smaller" fill="black">1</text></g><g><path transform="rotate(0,0, 0) scale(1)" d="M514,273L564,273L564,273L665,273L665,165" stroke="black" stroke-dasharray="none" stroke-width="1.3" fill="none"/><text x="524" y="263" font-size="smaller" fill="black">1</text><text x="675" y="175" font-size="smaller" fill="black">1</text></g><g><path transform="rotate(0,0, 0) scale(1)" d="M514,313L564,313L564,297L579,297L579,297L614,297" stroke="black" stroke-dasharray="none" stroke-width="1.3" fill="none"/><text x="524" y="303" font-size="smaller" fill="black">1</text><text x="594" y="287" font-size="smaller" fill="black">1</text></g><g transform="translate(284.9140625, 12)"><g transform="translate(0, 0)"><rect width="194.2890625" height="141" stroke="black" fill="white" stroke-width="1" transform="translate(0, 0)" rx="0"/><g transform="translate(0, 0)"><g transform="translate(0, 0)"><rect width="194.2890625" height="32" stroke="black" fill="black" stroke-width="1" transform="translate(0, 0)" rx="0"/><text fill="white" font-size="16" font-weight="bold" transform="translate(33.546875, 7)" alignment-baseline="middle" font-family="Arial"><tspan x="0" dy="16" font-family="Arial" font-size="16" font-weight="bold">active_challenges</tspan></text></g><g transform="translate(0, 32)"><path d="M 0,0 L 194.2890625 0" fill="none" stroke="black" stroke-dasharray="none" stroke-width="1"/><rect width="2" height="3" stroke="none" fill="none" stroke-width="1.3" transform="translate(0, 0)" rx="2"/></g><g transform="translate(0, 35)"><g transform="translate(0, 0)"><rect width="194.2890625" height="24" stroke="none" fill="none" stroke-width="1.3" transform="translate(0, 0)" rx="0"/><g transform="translate(0, 0)"><g transform="translate(0, 2)"><path transform="rotate(0,0, 0) scale(1)" d="M11.2283 9.0061V16.3709H13.4483V20H8.77164V9.00607C6.80401 8.45698 5.41319 6.65181 5.41319 4.5868C5.41319 2.06067 7.47387 0 9.99999 0C12.5261 0 14.5868 2.06067 14.5868 4.5868C14.5868 6.65181 13.196 8.45698 11.2283 9.00607V9.0061ZM9.99999 2.45676C8.81671 2.45676 7.8699 3.40357 7.8699 4.58685C7.8699 5.77013 8.81672 6.71694 9.99999 6.71694C11.1833 6.71694 12.1301 5.77012 12.1301 4.58685C12.1301 3.40357 11.1833 2.45676 9.99999 2.45676Z" stroke="black" stroke-dasharray="none" stroke-width="1" fill="white"/></g><g transform="translate(20, 0)"><g transform="translate(0, 0)"><rect width="18.453125" height="24" stroke="none" fill="none" stroke-width="0" transform="translate(0, 0)" rx="0"/><text fill="black" font-size="16" font-weight="normal" transform="translate(3, 3)" alignment-baseline="middle" font-family="Arial"><tspan x="0" dy="16" font-family="Arial" font-size="16" font-weight="normal">id</tspan></text></g></g></g></g><g transform="translate(0, 24)"><rect width="194.2890625" height="24" stroke="none" fill="none" stroke-width="1.3" transform="translate(0, 0)" rx="0"/><g transform="translate(0, 0)"><g transform="translate(0, 2)"><path transform="rotate(0,0, 0) scale(1)" d="M11.2283 9.0061V16.3709H13.4483V20H8.77164V9.00607C6.80401 8.45698 5.41319 6.65181 5.41319 4.5868C5.41319 2.06067 7.47387 0 9.99999 0C12.5261 0 14.5868 2.06067 14.5868 4.5868C14.5868 6.65181 13.196 8.45698 11.2283 9.00607V9.0061ZM9.99999 2.45676C8.81671 2.45676 7.8699 3.40357 7.8699 4.58685C7.8699 5.77013 8.81672 6.71694 9.99999 6.71694C11.1833 6.71694 12.1301 5.77012 12.1301 4.58685C12.1301 3.40357 11.1833 2.45676 9.99999 2.45676Z" stroke="black" stroke-dasharray="none" stroke-width="1" fill="gray"/></g><g transform="translate(20, 0)"><g transform="translate(0, 0)"><rect width="58.4765625" height="24" stroke="none" fill="none" stroke-width="0" transform="translate(0, 0)" rx="0"/><text fill="black" font-size="16" font-weight="normal" transform="translate(3, 3)" alignment-baseline="middle" font-family="Arial"><tspan x="0" dy="16" font-family="Arial" font-size="16" font-weight="normal">user_id</tspan></text></g></g></g></g><g transform="translate(0, 48)"><rect width="194.2890625" height="24" stroke="none" fill="none" stroke-width="1.3" transform="translate(0, 0)" rx="0"/><g transform="translate(0, 0)"><g transform="translate(0, 2)"><path transform="rotate(0,0, 0) scale(1)" d="M11.2283 9.0061V16.3709H13.4483V20H8.77164V9.00607C6.80401 8.45698 5.41319 6.65181 5.41319 4.5868C5.41319 2.06067 7.47387 0 9.99999 0C12.5261 0 14.5868 2.06067 14.5868 4.5868C14.5868 6.65181 13.196 8.45698 11.2283 9.00607V9.0061ZM9.99999 2.45676C8.81671 2.45676 7.8699 3.40357 7.8699 4.58685C7.8699 5.77013 8.81672 6.71694 9.99999 6.71694C11.1833 6.71694 12.1301 5.77012 12.1301 4.58685C12.1301 3.40357 11.1833 2.45676 9.99999 2.45676Z" stroke="black" stroke-dasharray="none" stroke-width="1" fill="gray"/></g><g transform="translate(20, 0)"><g transform="translate(0, 0)"><rect width="95.8515625" height="24" stroke="none" fill="none" stroke-width="0" transform="translate(0, 0)" rx="0"/><text fill="black" font-size="16" font-weight="normal" transform="translate(3, 3)" alignment-baseline="middle" font-family="Arial"><tspan x="0" dy="16" font-family="Arial" font-size="16" font-weight="normal">challenge_id</tspan></text></g></g></g></g><g transform="translate(0, 72)"><rect width="194.2890625" height="24" stroke="none" fill="none" stroke-width="1.3" transform="translate(0, 0)" rx="0"/><g transform="translate(0, 0)"><g transform="translate(0, 2)"><rect width="20" height="20" stroke="none" fill="none" stroke-width="1.3" transform="translate(0, 0)" rx="2"/></g><g transform="translate(20, 0)"><g transform="translate(0, 0)"><rect width="124.2890625" height="24" stroke="none" fill="none" stroke-width="0" transform="translate(0, 0)" rx="0"/><text fill="black" font-size="16" font-weight="normal" transform="translate(3, 3)" alignment-baseline="middle" font-family="Arial"><tspan x="0" dy="16" font-family="Arial" font-size="16" font-weight="normal">current_distance</tspan></text></g></g></g></g></g><g transform="translate(0, 131)"><rect width="10" height="10" stroke="none" fill="none" stroke-width="1.3" transform="translate(0, 0)" rx="2"/></g></g></g></g><g transform="translate(0, 24)"><g transform="translate(0, 0)"><rect width="150" height="117" stroke="black" fill="white" stroke-width="1" transform="translate(0, 0)" rx="0"/><g transform="translate(0, 0)"><g transform="translate(0, 0)"><rect width="150" height="32" stroke="black" fill="black" stroke-width="1" transform="translate(0, 0)" rx="0"/><text fill="white" font-size="16" font-weight="bold" transform="translate(55.4375, 7)" alignment-baseline="middle" font-family="Arial"><tspan x="0" dy="16" font-family="Arial" font-size="16" font-weight="bold">users</tspan></text></g><g transform="translate(0, 32)"><path d="M 0,0 L 150 0" fill="none" stroke="black" stroke-dasharray="none" stroke-width="1"/><rect width="2" height="3" stroke="none" fill="none" stroke-width="1.3" transform="translate(0, 0)" rx="2"/></g><g transform="translate(0, 35)"><g transform="translate(0, 0)"><rect width="150" height="24" stroke="none" fill="none" stroke-width="1.3" transform="translate(0, 0)" rx="0"/><g transform="translate(0, 0)"><g transform="translate(0, 2)"><path transform="rotate(0,0, 0) scale(1)" d="M11.2283 9.0061V16.3709H13.4483V20H8.77164V9.00607C6.80401 8.45698 5.41319 6.65181 5.41319 4.5868C5.41319 2.06067 7.47387 0 9.99999 0C12.5261 0 14.5868 2.06067 14.5868 4.5868C14.5868 6.65181 13.196 8.45698 11.2283 9.00607V9.0061ZM9.99999 2.45676C8.81671 2.45676 7.8699 3.40357 7.8699 4.58685C7.8699 5.77013 8.81672 6.71694 9.99999 6.71694C11.1833 6.71694 12.1301 5.77012 12.1301 4.58685C12.1301 3.40357 11.1833 2.45676 9.99999 2.45676Z" stroke="black" stroke-dasharray="none" stroke-width="1" fill="white"/></g><g transform="translate(20, 0)"><g transform="translate(0, 0)"><rect width="18.453125" height="24" stroke="none" fill="none" stroke-width="0" transform="translate(0, 0)" rx="0"/><text fill="black" font-size="16" font-weight="normal" transform="translate(3, 3)" alignment-baseline="middle" font-family="Arial"><tspan x="0" dy="16" font-family="Arial" font-size="16" font-weight="normal">id</tspan></text></g></g></g></g><g transform="translate(0, 24)"><rect width="150" height="24" stroke="none" fill="none" stroke-width="1.3" transform="translate(0, 0)" rx="0"/><g transform="translate(0, 0)"><g transform="translate(0, 2)"><rect width="20" height="20" stroke="none" fill="none" stroke-width="1.3" transform="translate(0, 0)" rx="2"/></g><g transform="translate(20, 0)"><g transform="translate(0, 0)"><rect width="77.1484375" height="24" stroke="none" fill="none" stroke-width="0" transform="translate(0, 0)" rx="0"/><text fill="black" font-size="16" font-weight="normal" transform="translate(3, 3)" alignment-baseline="middle" font-family="Arial"><tspan x="0" dy="16" font-family="Arial" font-size="16" font-weight="normal">username</tspan></text></g></g></g></g><g transform="translate(0, 48)"><rect width="150" height="24" stroke="none" fill="none" stroke-width="1.3" transform="translate(0, 0)" rx="0"/><g transform="translate(0, 0)"><g transform="translate(0, 2)"><rect width="20" height="20" stroke="none" fill="none" stroke-width="1.3" transform="translate(0, 0)" rx="2"/></g><g transform="translate(20, 0)"><g transform="translate(0, 0)"><rect width="74.4765625" height="24" stroke="none" fill="none" stroke-width="0" transform="translate(0, 0)" rx="0"/><text fill="black" font-size="16" font-weight="normal" transform="translate(3, 3)" alignment-baseline="middle" font-family="Arial"><tspan x="0" dy="16" font-family="Arial" font-size="16" font-weight="normal">password</tspan></text></g></g></g></g></g><g transform="translate(0, 107)"><rect width="10" height="10" stroke="none" fill="none" stroke-width="1.3" transform="translate(0, 0)" rx="2"/></g></g></g></g><g transform="translate(645.03515625, 0)"><g transform="translate(0, 0)"><rect width="153.375" height="165" stroke="black" fill="white" stroke-width="1" transform="translate(0, 0)" rx="0"/><g transform="translate(0, 0)"><g transform="translate(0, 0)"><rect width="153.375" height="32" stroke="black" fill="black" stroke-width="1" transform="translate(0, 0)" rx="0"/><text fill="white" font-size="16" font-weight="bold" transform="translate(38.4375, 7)" alignment-baseline="middle" font-family="Arial"><tspan x="0" dy="16" font-family="Arial" font-size="16" font-weight="bold">challenges</tspan></text></g><g transform="translate(0, 32)"><path d="M 0,0 L 153.375 0" fill="none" stroke="black" stroke-dasharray="none" stroke-width="1"/><rect width="2" height="3" stroke="none" fill="none" stroke-width="1.3" transform="translate(0, 0)" rx="2"/></g><g transform="translate(0, 35)"><g transform="translate(0, 0)"><rect width="153.375" height="24" stroke="none" fill="none" stroke-width="1.3" transform="translate(0, 0)" rx="0"/><g transform="translate(0, 0)"><g transform="translate(0, 2)"><path transform="rotate(0,0, 0) scale(1)" d="M11.2283 9.0061V16.3709H13.4483V20H8.77164V9.00607C6.80401 8.45698 5.41319 6.65181 5.41319 4.5868C5.41319 2.06067 7.47387 0 9.99999 0C12.5261 0 14.5868 2.06067 14.5868 4.5868C14.5868 6.65181 13.196 8.45698 11.2283 9.00607V9.0061ZM9.99999 2.45676C8.81671 2.45676 7.8699 3.40357 7.8699 4.58685C7.8699 5.77013 8.81672 6.71694 9.99999 6.71694C11.1833 6.71694 12.1301 5.77012 12.1301 4.58685C12.1301 3.40357 11.1833 2.45676 9.99999 2.45676Z" stroke="black" stroke-dasharray="none" stroke-width="1" fill="white"/></g><g transform="translate(20, 0)"><g transform="translate(0, 0)"><rect width="18.453125" height="24" stroke="none" fill="none" stroke-width="0" transform="translate(0, 0)" rx="0"/><text fill="black" font-size="16" font-weight="normal" transform="translate(3, 3)" alignment-baseline="middle" font-family="Arial"><tspan x="0" dy="16" font-family="Arial" font-size="16" font-weight="normal">id</tspan></text></g></g></g></g><g transform="translate(0, 24)"><rect width="153.375" height="24" stroke="none" fill="none" stroke-width="1.3" transform="translate(0, 0)" rx="0"/><g transform="translate(0, 0)"><g transform="translate(0, 2)"><rect width="20" height="20" stroke="none" fill="none" stroke-width="1.3" transform="translate(0, 0)" rx="2"/></g><g transform="translate(20, 0)"><g transform="translate(0, 0)"><rect width="30.8984375" height="24" stroke="none" fill="none" stroke-width="0" transform="translate(0, 0)" rx="0"/><text fill="black" font-size="16" font-weight="normal" transform="translate(3, 3)" alignment-baseline="middle" font-family="Arial"><tspan x="0" dy="16" font-family="Arial" font-size="16" font-weight="normal">title</tspan></text></g></g></g></g><g transform="translate(0, 48)"><rect width="153.375" height="24" stroke="none" fill="none" stroke-width="1.3" transform="translate(0, 0)" rx="0"/><g transform="translate(0, 0)"><g transform="translate(0, 2)"><rect width="20" height="20" stroke="none" fill="none" stroke-width="1.3" transform="translate(0, 0)" rx="2"/></g><g transform="translate(20, 0)"><g transform="translate(0, 0)"><rect width="83.375" height="24" stroke="none" fill="none" stroke-width="0" transform="translate(0, 0)" rx="0"/><text fill="black" font-size="16" font-weight="normal" transform="translate(3, 3)" alignment-baseline="middle" font-family="Arial"><tspan x="0" dy="16" font-family="Arial" font-size="16" font-weight="normal">description</tspan></text></g></g></g></g><g transform="translate(0, 72)"><rect width="153.375" height="24" stroke="none" fill="none" stroke-width="1.3" transform="translate(0, 0)" rx="0"/><g transform="translate(0, 0)"><g transform="translate(0, 2)"><rect width="20" height="20" stroke="none" fill="none" stroke-width="1.3" transform="translate(0, 0)" rx="2"/></g><g transform="translate(20, 0)"><g transform="translate(0, 0)"><rect width="63.5078125" height="24" stroke="none" fill="none" stroke-width="0" transform="translate(0, 0)" rx="0"/><text fill="black" font-size="16" font-weight="normal" transform="translate(3, 3)" alignment-baseline="middle" font-family="Arial"><tspan x="0" dy="16" font-family="Arial" font-size="16" font-weight="normal">difficulty</tspan></text></g></g></g></g><g transform="translate(0, 96)"><rect width="153.375" height="24" stroke="none" fill="none" stroke-width="1.3" transform="translate(0, 0)" rx="0"/><g transform="translate(0, 0)"><g transform="translate(0, 2)"><rect width="20" height="20" stroke="none" fill="none" stroke-width="1.3" transform="translate(0, 0)" rx="2"/></g><g transform="translate(20, 0)"><g transform="translate(0, 0)"><rect width="65.59375" height="24" stroke="none" fill="none" stroke-width="0" transform="translate(0, 0)" rx="0"/><text fill="black" font-size="16" font-weight="normal" transform="translate(3, 3)" alignment-baseline="middle" font-family="Arial"><tspan x="0" dy="16" font-family="Arial" font-size="16" font-weight="normal">distance</tspan></text></g></g></g></g></g><g transform="translate(0, 155)"><rect width="10" height="10" stroke="none" fill="none" stroke-width="1.3" transform="translate(0, 0)" rx="2"/></g></g></g></g><g transform="translate(250, 253)"><g transform="translate(0, 0)"><rect width="264.1171875" height="165" stroke="black" fill="white" stroke-width="1" transform="translate(0, 0)" rx="0"/><g transform="translate(0, 0)"><g transform="translate(0, 0)"><rect width="264.1171875" height="32" stroke="black" fill="black" stroke-width="1" transform="translate(0, 0)" rx="0"/><text fill="white" font-size="16" font-weight="bold" transform="translate(32, 7)" alignment-baseline="middle" font-family="Arial"><tspan x="0" dy="16" font-family="Arial" font-size="16" font-weight="bold">active_storage_attachments</tspan></text></g><g transform="translate(0, 32)"><path d="M 0,0 L 264.1171875 0" fill="none" stroke="black" stroke-dasharray="none" stroke-width="1"/><rect width="2" height="3" stroke="none" fill="none" stroke-width="1.3" transform="translate(0, 0)" rx="2"/></g><g transform="translate(0, 35)"><g transform="translate(0, 0)"><rect width="264.1171875" height="24" stroke="none" fill="none" stroke-width="1.3" transform="translate(0, 0)" rx="0"/><g transform="translate(0, 0)"><g transform="translate(0, 2)"><path transform="rotate(0,0, 0) scale(1)" d="M11.2283 9.0061V16.3709H13.4483V20H8.77164V9.00607C6.80401 8.45698 5.41319 6.65181 5.41319 4.5868C5.41319 2.06067 7.47387 0 9.99999 0C12.5261 0 14.5868 2.06067 14.5868 4.5868C14.5868 6.65181 13.196 8.45698 11.2283 9.00607V9.0061ZM9.99999 2.45676C8.81671 2.45676 7.8699 3.40357 7.8699 4.58685C7.8699 5.77013 8.81672 6.71694 9.99999 6.71694C11.1833 6.71694 12.1301 5.77012 12.1301 4.58685C12.1301 3.40357 11.1833 2.45676 9.99999 2.45676Z" stroke="black" stroke-dasharray="none" stroke-width="1" fill="white"/></g><g transform="translate(20, 0)"><g transform="translate(0, 0)"><rect width="18.453125" height="24" stroke="none" fill="none" stroke-width="0" transform="translate(0, 0)" rx="0"/><text fill="black" font-size="16" font-weight="normal" transform="translate(3, 3)" alignment-baseline="middle" font-family="Arial"><tspan x="0" dy="16" font-family="Arial" font-size="16" font-weight="normal">id</tspan></text></g></g></g></g><g transform="translate(0, 24)"><rect width="264.1171875" height="24" stroke="none" fill="none" stroke-width="1.3" transform="translate(0, 0)" rx="0"/><g transform="translate(0, 0)"><g transform="translate(0, 2)"><path transform="rotate(0,0, 0) scale(1)" d="M11.2283 9.0061V16.3709H13.4483V20H8.77164V9.00607C6.80401 8.45698 5.41319 6.65181 5.41319 4.5868C5.41319 2.06067 7.47387 0 9.99999 0C12.5261 0 14.5868 2.06067 14.5868 4.5868C14.5868 6.65181 13.196 8.45698 11.2283 9.00607V9.0061ZM9.99999 2.45676C8.81671 2.45676 7.8699 3.40357 7.8699 4.58685C7.8699 5.77013 8.81672 6.71694 9.99999 6.71694C11.1833 6.71694 12.1301 5.77012 12.1301 4.58685C12.1301 3.40357 11.1833 2.45676 9.99999 2.45676Z" stroke="black" stroke-dasharray="none" stroke-width="1" fill="gray"/></g><g transform="translate(20, 0)"><g transform="translate(0, 0)"><rect width="72.703125" height="24" stroke="none" fill="none" stroke-width="0" transform="translate(0, 0)" rx="0"/><text fill="black" font-size="16" font-weight="normal" transform="translate(3, 3)" alignment-baseline="middle" font-family="Arial"><tspan x="0" dy="16" font-family="Arial" font-size="16" font-weight="normal">record_id</tspan></text></g></g></g></g><g transform="translate(0, 48)"><rect width="264.1171875" height="24" stroke="none" fill="none" stroke-width="1.3" transform="translate(0, 0)" rx="0"/><g transform="translate(0, 0)"><g transform="translate(0, 2)"><path transform="rotate(0,0, 0) scale(1)" d="M11.2283 9.0061V16.3709H13.4483V20H8.77164V9.00607C6.80401 8.45698 5.41319 6.65181 5.41319 4.5868C5.41319 2.06067 7.47387 0 9.99999 0C12.5261 0 14.5868 2.06067 14.5868 4.5868C14.5868 6.65181 13.196 8.45698 11.2283 9.00607V9.0061ZM9.99999 2.45676C8.81671 2.45676 7.8699 3.40357 7.8699 4.58685C7.8699 5.77013 8.81672 6.71694 9.99999 6.71694C11.1833 6.71694 12.1301 5.77012 12.1301 4.58685C12.1301 3.40357 11.1833 2.45676 9.99999 2.45676Z" stroke="black" stroke-dasharray="none" stroke-width="1" fill="gray"/></g><g transform="translate(20, 0)"><g transform="translate(0, 0)"><rect width="57.6015625" height="24" stroke="none" fill="none" stroke-width="0" transform="translate(0, 0)" rx="0"/><text fill="black" font-size="16" font-weight="normal" transform="translate(3, 3)" alignment-baseline="middle" font-family="Arial"><tspan x="0" dy="16" font-family="Arial" font-size="16" font-weight="normal">blob_id</tspan></text></g></g></g></g><g transform="translate(0, 72)"><rect width="264.1171875" height="24" stroke="none" fill="none" stroke-width="1.3" transform="translate(0, 0)" rx="0"/><g transform="translate(0, 0)"><g transform="translate(0, 2)"><rect width="20" height="20" stroke="none" fill="none" stroke-width="1.3" transform="translate(0, 0)" rx="2"/></g><g transform="translate(20, 0)"><g transform="translate(0, 0)"><rect width="46.0234375" height="24" stroke="none" fill="none" stroke-width="0" transform="translate(0, 0)" rx="0"/><text fill="black" font-size="16" font-weight="normal" transform="translate(3, 3)" alignment-baseline="middle" font-family="Arial"><tspan x="0" dy="16" font-family="Arial" font-size="16" font-weight="normal">name</tspan></text></g></g></g></g><g transform="translate(0, 96)"><rect width="264.1171875" height="24" stroke="none" fill="none" stroke-width="1.3" transform="translate(0, 0)" rx="0"/><g transform="translate(0, 0)"><g transform="translate(0, 2)"><rect width="20" height="20" stroke="none" fill="none" stroke-width="1.3" transform="translate(0, 0)" rx="2"/></g><g transform="translate(20, 0)"><g transform="translate(0, 0)"><rect width="90.4921875" height="24" stroke="none" fill="none" stroke-width="0" transform="translate(0, 0)" rx="0"/><text fill="black" font-size="16" font-weight="normal" transform="translate(3, 3)" alignment-baseline="middle" font-family="Arial"><tspan x="0" dy="16" font-family="Arial" font-size="16" font-weight="normal">record_type</tspan></text></g></g></g></g></g><g transform="translate(0, 155)"><rect width="10" height="10" stroke="none" fill="none" stroke-width="1.3" transform="translate(0, 0)" rx="2"/></g></g></g></g><g transform="translate(614.1171875, 277)"><g transform="translate(0, 0)"><rect width="215.2109375" height="237" stroke="black" fill="white" stroke-width="1" transform="translate(0, 0)" rx="0"/><g transform="translate(0, 0)"><g transform="translate(0, 0)"><rect width="215.2109375" height="32" stroke="black" fill="black" stroke-width="1" transform="translate(0, 0)" rx="0"/><text fill="white" font-size="16" font-weight="bold" transform="translate(32, 7)" alignment-baseline="middle" font-family="Arial"><tspan x="0" dy="16" font-family="Arial" font-size="16" font-weight="bold">active_storage_blobs</tspan></text></g><g transform="translate(0, 32)"><path d="M 0,0 L 215.2109375 0" fill="none" stroke="black" stroke-dasharray="none" stroke-width="1"/><rect width="2" height="3" stroke="none" fill="none" stroke-width="1.3" transform="translate(0, 0)" rx="2"/></g><g transform="translate(0, 35)"><g transform="translate(0, 0)"><rect width="215.2109375" height="24" stroke="none" fill="none" stroke-width="1.3" transform="translate(0, 0)" rx="0"/><g transform="translate(0, 0)"><g transform="translate(0, 2)"><path transform="rotate(0,0, 0) scale(1)" d="M11.2283 9.0061V16.3709H13.4483V20H8.77164V9.00607C6.80401 8.45698 5.41319 6.65181 5.41319 4.5868C5.41319 2.06067 7.47387 0 9.99999 0C12.5261 0 14.5868 2.06067 14.5868 4.5868C14.5868 6.65181 13.196 8.45698 11.2283 9.00607V9.0061ZM9.99999 2.45676C8.81671 2.45676 7.8699 3.40357 7.8699 4.58685C7.8699 5.77013 8.81672 6.71694 9.99999 6.71694C11.1833 6.71694 12.1301 5.77012 12.1301 4.58685C12.1301 3.40357 11.1833 2.45676 9.99999 2.45676Z" stroke="black" stroke-dasharray="none" stroke-width="1" fill="white"/></g><g transform="translate(20, 0)"><g transform="translate(0, 0)"><rect width="18.453125" height="24" stroke="none" fill="none" stroke-width="0" transform="translate(0, 0)" rx="0"/><text fill="black" font-size="16" font-weight="normal" transform="translate(3, 3)" alignment-baseline="middle" font-family="Arial"><tspan x="0" dy="16" font-family="Arial" font-size="16" font-weight="normal">id</tspan></text></g></g></g></g><g transform="translate(0, 24)"><rect width="215.2109375" height="24" stroke="none" fill="none" stroke-width="1.3" transform="translate(0, 0)" rx="0"/><g transform="translate(0, 0)"><g transform="translate(0, 2)"><rect width="20" height="20" stroke="none" fill="none" stroke-width="1.3" transform="translate(0, 0)" rx="2"/></g><g transform="translate(20, 0)"><g transform="translate(0, 0)"><rect width="30.8984375" height="24" stroke="none" fill="none" stroke-width="0" transform="translate(0, 0)" rx="0"/><text fill="black" font-size="16" font-weight="normal" transform="translate(3, 3)" alignment-baseline="middle" font-family="Arial"><tspan x="0" dy="16" font-family="Arial" font-size="16" font-weight="normal">key</tspan></text></g></g></g></g><g transform="translate(0, 48)"><rect width="215.2109375" height="24" stroke="none" fill="none" stroke-width="1.3" transform="translate(0, 0)" rx="0"/><g transform="translate(0, 0)"><g transform="translate(0, 2)"><rect width="20" height="20" stroke="none" fill="none" stroke-width="1.3" transform="translate(0, 0)" rx="2"/></g><g transform="translate(20, 0)"><g transform="translate(0, 0)"><rect width="75.375" height="24" stroke="none" fill="none" stroke-width="0" transform="translate(0, 0)" rx="0"/><text fill="black" font-size="16" font-weight="normal" transform="translate(3, 3)" alignment-baseline="middle" font-family="Arial"><tspan x="0" dy="16" font-family="Arial" font-size="16" font-weight="normal">file_name</tspan></text></g></g></g></g><g transform="translate(0, 72)"><rect width="215.2109375" height="24" stroke="none" fill="none" stroke-width="1.3" transform="translate(0, 0)" rx="0"/><g transform="translate(0, 0)"><g transform="translate(0, 2)"><rect width="20" height="20" stroke="none" fill="none" stroke-width="1.3" transform="translate(0, 0)" rx="2"/></g><g transform="translate(20, 0)"><g transform="translate(0, 0)"><rect width="97.625" height="24" stroke="none" fill="none" stroke-width="0" transform="translate(0, 0)" rx="0"/><text fill="black" font-size="16" font-weight="normal" transform="translate(3, 3)" alignment-baseline="middle" font-family="Arial"><tspan x="0" dy="16" font-family="Arial" font-size="16" font-weight="normal">content_type</tspan></text></g></g></g></g><g transform="translate(0, 96)"><rect width="215.2109375" height="24" stroke="none" fill="none" stroke-width="1.3" transform="translate(0, 0)" rx="0"/><g transform="translate(0, 0)"><g transform="translate(0, 2)"><rect width="20" height="20" stroke="none" fill="none" stroke-width="1.3" transform="translate(0, 0)" rx="2"/></g><g transform="translate(20, 0)"><g transform="translate(0, 0)"><rect width="72.7109375" height="24" stroke="none" fill="none" stroke-width="0" transform="translate(0, 0)" rx="0"/><text fill="black" font-size="16" font-weight="normal" transform="translate(3, 3)" alignment-baseline="middle" font-family="Arial"><tspan x="0" dy="16" font-family="Arial" font-size="16" font-weight="normal">metadata</tspan></text></g></g></g></g><g transform="translate(0, 120)"><rect width="215.2109375" height="24" stroke="none" fill="none" stroke-width="1.3" transform="translate(0, 0)" rx="0"/><g transform="translate(0, 0)"><g transform="translate(0, 2)"><rect width="20" height="20" stroke="none" fill="none" stroke-width="1.3" transform="translate(0, 0)" rx="2"/></g><g transform="translate(20, 0)"><g transform="translate(0, 0)"><rect width="105.6015625" height="24" stroke="none" fill="none" stroke-width="0" transform="translate(0, 0)" rx="0"/><text fill="black" font-size="16" font-weight="normal" transform="translate(3, 3)" alignment-baseline="middle" font-family="Arial"><tspan x="0" dy="16" font-family="Arial" font-size="16" font-weight="normal">service_name</tspan></text></g></g></g></g><g transform="translate(0, 144)"><rect width="215.2109375" height="24" stroke="none" fill="none" stroke-width="1.3" transform="translate(0, 0)" rx="0"/><g transform="translate(0, 0)"><g transform="translate(0, 2)"><rect width="20" height="20" stroke="none" fill="none" stroke-width="1.3" transform="translate(0, 0)" rx="2"/></g><g transform="translate(20, 0)"><g transform="translate(0, 0)"><rect width="73.59375" height="24" stroke="none" fill="none" stroke-width="0" transform="translate(0, 0)" rx="0"/><text fill="black" font-size="16" font-weight="normal" transform="translate(3, 3)" alignment-baseline="middle" font-family="Arial"><tspan x="0" dy="16" font-family="Arial" font-size="16" font-weight="normal">byte_size</tspan></text></g></g></g></g><g transform="translate(0, 168)"><rect width="215.2109375" height="24" stroke="none" fill="none" stroke-width="1.3" transform="translate(0, 0)" rx="0"/><g transform="translate(0, 0)"><g transform="translate(0, 2)"><rect width="20" height="20" stroke="none" fill="none" stroke-width="1.3" transform="translate(0, 0)" rx="2"/></g><g transform="translate(20, 0)"><g transform="translate(0, 0)"><rect width="78.0234375" height="24" stroke="none" fill="none" stroke-width="0" transform="translate(0, 0)" rx="0"/><text fill="black" font-size="16" font-weight="normal" transform="translate(3, 3)" alignment-baseline="middle" font-family="Arial"><tspan x="0" dy="16" font-family="Arial" font-size="16" font-weight="normal">checksum</tspan></text></g></g></g></g></g><g transform="translate(0, 227)"><rect width="10" height="10" stroke="none" fill="none" stroke-width="1.3" transform="translate(0, 0)" rx="2"/></g></g></g></g></svg>